<?xml version="1.0" encoding="UTF-8" standalone="no"?>
<!DOCTYPE svg PUBLIC "-//W3C//DTD SVG 1.1//EN" "http://www.w3.org/Graphics/SVG/1.1/DTD/svg11.dtd">
<svg xmlns="http://www.w3.org/2000/svg" version="1.1" viewBox="0.00 0.00 875.00 285.00">
<g stroke-width="2.00" fill="none" stroke-linecap="butt">
<path stroke="#91472c" vector-effect="non-scaling-stroke" d="
  M 117.66 63.22
  L 68.67 93.46"
/>
<path stroke="#91472c" vector-effect="non-scaling-stroke" d="
  M 58.73 158.69
  Q 57.90 158.92 57.14 159.39
  Q 34.19 173.56 11.26 187.76
  Q 10.81 188.04 10.45 188.89"
/>
<path stroke="#245d7f" vector-effect="non-scaling-stroke" d="
  M 176.51 96.20
  L 127.57 126.56"
/>
<path stroke="#245d7f" vector-effect="non-scaling-stroke" d="
  M 117.63 191.42
  L 69.37 221.28
  A 0.47 0.46 -31.3 0 1 68.73 221.13
  Q 68.68 221.06 68.64 220.72"
/>
</g>
<path fill="#333333" d="
  M 117.66 63.22
  L 68.67 93.46
  L 68.61 41.32
  A 0.63 0.63 0.0 0 1 69.51 40.75
  L 117.66 63.22
  Z"
/>
<path fill="#ee5b25" d="
  M 117.66 63.22
  L 117.71 120.98
  Q 117.71 121.81 117.00 122.25
  L 58.73 158.69
  Q 57.90 158.92 57.14 159.39
  Q 34.19 173.56 11.26 187.76
  Q 10.81 188.04 10.45 188.89
  Q 10.08 189.06 9.86 188.94
  Q 9.68 188.84 9.68 188.63
  Q 9.75 159.52 9.71 130.55
  Q 9.71 130.02 10.16 129.74
  L 68.67 93.46
  L 117.66 63.22
  Z"
/>
<path fill="#333333" d="
  M 176.51 96.20
  L 127.57 126.56
  L 127.58 73.84
  Q 127.58 73.34 128.03 73.56
  L 176.51 96.20
  Z"
/>
<path fill="#1586ca" d="
  M 176.51 96.20
  L 176.52 154.67
  Q 176.52 154.87 176.35 154.98
  L 117.63 191.42
  L 69.37 221.28
  A 0.47 0.46 -31.3 0 1 68.73 221.13
  Q 68.68 221.06 68.64 220.72
  L 68.66 163.51
  Q 68.66 163.00 69.09 162.73
  L 127.57 126.56
  L 176.51 96.20
  Z"
/>
<path fill="#333333" d="
  M 333.40 115.14
  Q 337.87 112.00 344.11 110.12
  Q 345.88 109.59 347.60 109.53
  C 349.25 109.47 350.73 108.96 352.36 108.96
  C 364.48 108.92 376.04 115.00 381.98 125.67
  Q 382.23 126.12 381.73 126.26
  L 367.20 130.14
  A 1.38 1.37 -29.1 0 1 365.85 129.76
  Q 360.62 124.30 352.52 124.40
  C 339.30 124.57 333.17 136.87 336.57 148.65
  C 338.27 154.51 342.41 158.47 348.36 159.90
  C 354.78 161.44 362.94 159.33 367.04 153.63
  A 1.31 1.31 0.0 0 1 368.41 153.13
  L 382.80 156.82
  Q 383.26 156.94 383.09 157.38
  Q 381.95 160.20 380.36 162.23
  Q 370.10 175.32 354.40 175.89
  C 337.80 176.49 323.60 165.91 320.24 149.54
  Q 318.42 140.68 321.07 132.15
  Q 324.39 121.48 333.40 115.14
  Z"
/>
<path fill="#333333" d="
  M 724.57 142.48
  A 33.58 33.58 0.0 0 1 690.99 176.06
  A 33.58 33.58 0.0 0 1 657.41 142.48
  A 33.58 33.58 0.0 0 1 690.99 108.90
  A 33.58 33.58 0.0 0 1 724.57 142.48
  Z
  M 708.1278 140.1105
  A 15.59 15.59 0.0 0 0 692.4564 124.6024
  L 689.4565 124.6181
  A 15.59 15.59 0.0 0 0 673.9483 140.2895
  L 673.9722 144.8495
  A 15.59 15.59 0.0 0 0 689.6436 160.3576
  L 692.6435 160.3419
  A 15.59 15.59 0.0 0 0 708.1517 144.6705
  L 708.1278 140.1105
  Z"
/>
<path fill="#333333" d="
  M 815.72 111.81
  C 823.91 108.17 832.92 108.08 840.99 112.23
  Q 849.28 116.50 852.78 125.37
  Q 853.26 126.60 851.99 126.94
  L 838.80 130.53
  A 0.44 0.44 0.0 0 1 838.27 130.27
  Q 834.87 121.60 825.19 122.53
  C 824.09 122.64 822.82 123.25 821.91 123.88
  C 818.48 126.27 819.55 129.77 822.89 131.47
  Q 828.10 134.10 833.55 135.78
  C 844.61 139.18 856.99 147.17 852.94 161.07
  C 850.52 169.40 842.18 174.37 833.80 175.40
  C 818.46 177.28 807.75 171.25 801.57 157.15
  Q 801.36 156.66 801.85 156.48
  Q 807.26 154.50 812.66 153.51
  Q 813.61 153.33 814.48 152.95
  Q 814.98 152.73 815.47 152.66
  A 0.78 0.78 0.0 0 1 816.29 153.11
  Q 818.90 158.95 824.07 161.22
  Q 828.55 163.19 833.26 161.55
  C 839.85 159.26 837.94 153.08 832.59 150.97
  Q 825.08 148.01 817.57 145.46
  Q 813.92 144.22 809.51 140.45
  C 803.25 135.10 802.25 125.76 807.01 118.97
  Q 810.35 114.20 815.72 111.81
  Z"
/>
<path fill="#333333" d="
  M 229.98 125.14
  Q 230.55 124.60 229.76 124.60
  L 197.34 124.69
  A 0.48 0.47 0.0 0 1 196.86 124.22
  L 196.88 111.02
  A 0.85 0.85 0.0 0 1 197.73 110.17
  L 249.87 110.22
  A 0.84 0.84 0.0 0 1 250.71 111.06
  L 250.71 124.01
  Q 250.71 124.73 250.21 125.26
  Q 236.35 140.13 228.17 148.92
  Q 223.01 154.47 217.87 159.58
  Q 217.09 160.35 218.19 160.35
  L 250.12 160.28
  A 0.60 0.59 0.0 0 1 250.72 160.87
  L 250.71 173.79
  A 1.00 0.99 -0.0 0 1 249.71 174.78
  L 196.57 174.80
  A 0.73 0.72 -90.0 0 1 195.85 174.07
  L 195.84 161.07
  A 1.93 1.92 67.4 0 1 196.39 159.72
  C 207.27 148.61 218.37 136.27 229.98 125.14
  Z"
/>
<path fill="#333333" d="
  M 408.21 153.65
  A 0.67 0.67 0.0 0 0 407.54 154.32
  L 407.53 174.03
  A 0.81 0.80 -0.0 0 1 406.72 174.83
  L 392.71 174.76
  A 0.80 0.80 0.0 0 1 391.91 173.96
  L 391.92 111.51
  Q 391.92 110.21 393.22 110.20
  Q 404.89 110.10 415.72 110.20
  Q 421.18 110.24 426.16 111.67
  Q 435.64 114.40 439.68 121.95
  Q 443.17 128.49 441.67 136.72
  Q 439.99 145.91 431.09 150.53
  A 0.61 0.61 0.0 0 0 430.85 151.38
  L 444.21 173.57
  A 0.82 0.82 0.0 0 1 443.51 174.81
  L 428.92 174.82
  A 2.42 2.41 75.0 0 1 426.80 173.59
  L 415.91 154.41
  A 1.53 1.52 75.0 0 0 414.59 153.64
  L 408.21 153.65
  Z
  M 407.55 125.25
  L 407.51 139.29
  A 0.59 0.59 0.0 0 0 408.09 139.88
  L 417.93 139.91
  A 7.89 6.93 0.2 0 0 425.85 133.01
  L 425.85 131.65
  A 7.89 6.93 0.2 0 0 417.99 124.69
  L 408.15 124.66
  A 0.59 0.59 0.0 0 0 407.55 125.25
  Z"
/>
<path fill="#333333" d="
  M 470.16 125.42
  L 470.25 134.48
  A 0.98 0.98 0.0 0 0 471.23 135.46
  L 493.50 135.46
  A 1.46 1.45 -1.0 0 1 494.96 136.86
  Q 495.15 141.84 494.62 147.51
  A 1.08 1.07 -87.4 0 1 493.55 148.49
  L 471.24 148.66
  Q 470.18 148.67 470.19 149.73
  L 470.29 159.25
  A 0.98 0.97 2.6 0 0 471.18 160.22
  Q 472.80 160.37 474.75 160.37
  Q 487.96 160.43 501.36 160.36
  A 0.90 0.89 -90.0 0 1 502.26 161.27
  L 502.05 173.56
  A 0.86 0.85 0.3 0 1 501.19 174.40
  L 455.81 174.43
  A 0.77 0.76 -0.4 0 1 455.04 173.68
  Q 454.77 145.72 455.15 117.94
  C 455.18 115.11 453.68 112.39 456.58 110.32
  A 1.65 1.61 29.0 0 1 457.63 110.03
  C 459.29 110.16 460.94 110.58 462.59 110.57
  Q 481.41 110.37 500.73 110.49
  Q 501.56 110.49 501.56 111.31
  L 501.65 123.18
  A 1.33 1.33 0.0 0 1 500.32 124.52
  L 471.08 124.50
  A 0.92 0.91 -0.3 0 0 470.16 125.42
  Z"
/>
<rect fill="#333333" x="632.24" y="110.16" width="15.68" height="64.64" rx="0.79"/>
<path fill="#333333" d="
  M 278.78 154.45
  L 278.80 173.75
  A 1.05 1.04 -89.7 0 1 277.75 174.80
  L 264.44 174.74
  A 1.05 1.05 0.0 0 1 263.40 173.69
  L 263.40 111.75
  Q 263.40 110.18 264.97 110.17
  Q 276.12 110.11 286.69 110.23
  Q 292.50 110.29 297.39 111.61
  Q 302.86 113.09 306.89 116.79
  C 315.81 124.97 315.91 140.02 306.34 148.08
  C 305.08 149.14 303.60 149.61 302.31 150.59
  Q 301.90 150.90 302.17 151.35
  L 315.58 173.51
  A 0.88 0.87 74.5 0 1 314.83 174.84
  L 299.86 174.74
  A 1.84 1.82 -14.6 0 1 298.29 173.83
  L 287.22 154.32
  A 1.36 1.35 75.2 0 0 286.04 153.63
  L 279.55 153.67
  Q 278.78 153.68 278.78 154.45
  Z
  M 278.73 125.39
  L 278.81 139.25
  A 0.67 0.67 0.0 0 0 279.48 139.92
  L 289.74 139.86
  A 7.67 7.49 -0.3 0 0 297.37 132.33
  L 297.37 132.11
  A 7.67 7.49 -0.3 0 0 289.66 124.66
  L 279.40 124.72
  A 0.67 0.67 0.0 0 0 278.73 125.39
  Z"
/>
<path fill="#333333" d="
  M 749.78 136.88
  Q 749.59 137.68 749.61 138.50
  Q 750.06 155.91 749.85 173.76
  A 0.83 0.82 0.3 0 1 749.02 174.57
  L 734.91 174.55
  A 0.66 0.65 90.0 0 1 734.26 173.89
  L 734.27 111.14
  A 0.67 0.67 0.0 0 1 734.94 110.47
  L 748.13 110.40
  Q 748.87 110.40 749.31 110.98
  Q 762.90 128.96 776.09 147.44
  A 0.56 0.56 0.0 0 0 776.94 147.51
  Q 777.12 147.34 777.11 147.07
  Q 776.68 128.96 776.73 110.98
  A 0.54 0.53 -0.6 0 1 777.26 110.45
  L 791.66 110.37
  A 0.55 0.55 0.0 0 1 792.22 110.92
  L 792.24 173.78
  A 0.76 0.76 0.0 0 1 791.47 174.54
  L 778.30 174.48
  Q 777.64 174.48 777.26 173.95
  L 750.19 136.80
  Q 749.89 136.40 749.78 136.88
  Z"
/>
<path fill="#333333" d="
  M 554.33 164.10
  L 529.58 164.11
  A 0.65 0.65 0.0 0 0 528.97 164.53
  L 525.49 173.80
  A 0.65 0.65 0.0 0 1 524.89 174.23
  L 510.04 174.43
  A 0.65 0.65 0.0 0 1 509.43 173.54
  L 534.38 110.87
  A 0.65 0.65 0.0 0 1 534.98 110.46
  L 548.69 110.45
  A 0.65 0.65 0.0 0 1 549.29 110.86
  L 574.54 173.61
  A 0.65 0.65 0.0 0 1 573.93 174.50
  L 558.93 174.41
  A 0.65 0.65 0.0 0 1 558.32 173.98
  L 554.94 164.53
  A 0.65 0.65 0.0 0 0 554.33 164.10
  Z
  M 534.28 150.49
  A 0.38 0.38 0.0 0 0 534.64 151.00
  L 549.22 151.00
  A 0.38 0.38 0.0 0 0 549.58 150.49
  L 542.29 130.16
  A 0.38 0.38 0.0 0 0 541.57 130.16
  L 534.28 150.49
  Z"
/>
<path fill="#333333" d="
  M 603.64 174.49
  L 589.97 174.50
  A 0.65 0.65 0.0 0 1 589.32 173.85
  L 589.23 125.19
  A 0.65 0.65 0.0 0 0 588.58 124.54
  L 570.31 124.54
  A 0.65 0.65 0.0 0 1 569.66 123.89
  L 569.60 111.13
  A 0.65 0.65 0.0 0 1 570.25 110.48
  L 623.28 110.52
  A 0.65 0.65 0.0 0 1 623.93 111.17
  L 623.97 123.84
  A 0.65 0.65 0.0 0 1 623.32 124.49
  L 604.90 124.54
  A 0.65 0.65 0.0 0 0 604.25 125.19
  L 604.29 173.84
  A 0.65 0.65 0.0 0 1 603.64 174.49
  Z"
/>
<path fill="#333333" d="
  M 58.73 158.69
  L 58.73 210.67
  A 0.49 0.49 0.0 0 1 58.03 211.11
  L 10.45 188.89
  Q 10.81 188.04 11.26 187.76
  Q 34.19 173.56 57.14 159.39
  Q 57.90 158.92 58.73 158.69
  Z"
/>
<path fill="#333333" d="
  M 117.63 191.42
  L 117.66 243.56
  Q 117.66 244.75 116.59 244.24
  Q 92.56 232.93 69.07 221.92
  Q 68.66 221.73 68.60 221.46
  Q 68.53 221.16 68.64 220.72
  Q 68.68 221.06 68.73 221.13
  A 0.47 0.46 -31.3 0 0 69.37 221.28
  L 117.63 191.42
  Z"
/>
</svg>
