<?xml version="1.0" encoding="UTF-8" standalone="no"?>
<!DOCTYPE svg PUBLIC "-//W3C//DTD SVG 1.1//EN" "http://www.w3.org/Graphics/SVG/1.1/DTD/svg11.dtd">
<svg xmlns="http://www.w3.org/2000/svg" version="1.1" viewBox="0.00 0.00 662.00 185.00">
<path fill="#ffffff" d="
  M 51.32 145.08
  L 16.68 128.85
  A 0.33 0.33 0.0 0 1 16.49 128.55
  L 16.51 86.78
  A 0.33 0.33 0.0 0 1 16.67 86.50
  L 58.85 60.32
  A 0.33 0.33 0.0 0 0 59.01 60.04
  L 59.01 22.26
  A 0.33 0.33 0.0 0 1 59.48 21.96
  L 94.08 38.22
  A 0.33 0.33 0.0 0 1 94.27 38.52
  L 94.23 80.43
  A 0.33 0.33 0.0 0 1 94.07 80.71
  L 51.95 106.85
  A 0.33 0.33 0.0 0 0 51.79 107.13
  L 51.79 144.78
  A 0.33 0.33 0.0 0 1 51.32 145.08
  Z"
/>
<path fill="#ffffff" d="
  M 101.89 45.77
  L 136.58 62.09
  A 0.30 0.30 0.0 0 1 136.75 62.36
  L 136.75 104.28
  A 0.30 0.30 0.0 0 1 136.61 104.54
  L 94.37 130.75
  A 0.30 0.30 0.0 0 0 94.23 131.01
  L 94.24 168.91
  A 0.30 0.30 0.0 0 1 93.81 169.18
  L 59.19 152.87
  A 0.30 0.30 0.0 0 1 59.02 152.60
  L 59.00 110.62
  A 0.30 0.30 0.0 0 1 59.14 110.36
  L 101.35 84.15
  A 0.30 0.30 0.0 0 0 101.49 83.89
  L 101.46 46.04
  A 0.30 0.30 0.0 0 1 101.89 45.77
  Z"
/>
<path fill="#ffffff" d="
  M 284.64 83.72
  L 274.31 86.53
  Q 273.85 86.65 273.50 86.34
  Q 267.02 80.61 259.25 83.17
  C 251.68 85.65 249.74 95.27 252.79 101.95
  C 255.79 108.52 263.91 110.15 270.09 107.08
  C 271.97 106.14 272.85 105.00 274.25 103.62
  Q 274.65 103.22 275.20 103.36
  L 284.79 105.80
  Q 285.87 106.08 285.31 107.04
  C 278.94 118.07 266.59 122.42 254.85 117.93
  Q 245.43 114.33 241.57 104.69
  C 238.59 97.25 239.56 87.69 244.30 81.25
  Q 249.00 74.88 256.19 72.63
  Q 264.02 70.18 271.83 72.83
  Q 279.86 75.54 284.76 83.43
  A 0.19 0.19 0.0 0 1 284.64 83.72
  Z"
/>
<path fill="#ffffff" d="
  M 531.84 95.54
  A 24.18 24.18 0.0 0 1 507.66 119.72
  A 24.18 24.18 0.0 0 1 483.48 95.54
  A 24.18 24.18 0.0 0 1 507.66 71.36
  A 24.18 24.18 0.0 0 1 531.84 95.54
  Z
  M 507.8331 108.8790
  A 13.35 12.71 89.3 0 0 520.3791 95.3747
  A 13.35 12.71 89.3 0 0 507.5069 82.1810
  A 13.35 12.71 89.3 0 0 494.9609 95.6853
  A 13.35 12.71 89.3 0 0 507.8331 108.8790
  Z"
/>
<path fill="#ffffff" d="
  M 598.27 103.55
  C 600.20 108.62 605.67 111.18 610.69 109.20
  Q 612.93 108.32 613.14 105.84
  C 613.36 103.34 609.85 101.56 607.91 100.88
  C 600.02 98.11 587.88 95.15 589.18 84.07
  C 590.34 74.27 601.78 70.10 610.42 71.86
  Q 620.66 73.94 624.23 83.32
  Q 624.53 84.10 623.73 84.31
  L 614.47 86.79
  Q 613.88 86.95 613.67 86.38
  C 611.79 81.48 606.00 79.65 601.52 82.29
  Q 601.02 82.58 600.85 83.13
  C 600.00 85.80 601.96 87.40 604.19 88.30
  Q 608.78 90.17 613.39 91.78
  Q 616.25 92.78 619.89 95.56
  C 622.98 97.93 625.02 101.43 624.90 105.39
  C 624.62 115.22 615.98 119.50 607.10 119.67
  C 598.04 119.84 590.93 114.91 587.49 106.40
  Q 587.21 105.70 587.93 105.50
  L 597.25 103.03
  Q 597.99 102.83 598.27 103.55
  Z"
/>
<path fill="#ffffff" d="
  M 190.11 108.73
  L 190.06 118.47
  A 0.32 0.32 0.0 0 1 189.74 118.79
  L 151.05 118.79
  A 0.32 0.32 0.0 0 1 150.73 118.47
  L 150.79 108.45
  A 0.32 0.32 0.0 0 1 150.88 108.23
  L 175.11 83.03
  A 0.32 0.32 0.0 0 0 174.87 82.49
  L 151.75 82.84
  A 0.32 0.32 0.0 0 1 151.43 82.52
  L 151.39 72.58
  A 0.32 0.32 0.0 0 1 151.71 72.26
  L 189.75 72.26
  A 0.32 0.32 0.0 0 1 190.07 72.58
  L 190.08 82.64
  A 0.32 0.32 0.0 0 1 189.99 82.86
  L 166.52 107.99
  A 0.32 0.32 0.0 0 0 166.75 108.53
  L 189.79 108.41
  A 0.32 0.32 0.0 0 1 190.11 108.73
  Z"
/>
<path fill="#ffffff" d="
  M 210.49 104.41
  L 210.48 118.28
  Q 210.48 118.79 209.97 118.79
  L 200.00 118.79
  Q 199.46 118.79 199.46 118.25
  L 199.46 72.80
  Q 199.46 72.27 199.98 72.27
  Q 207.98 72.23 217.18 72.30
  Q 221.17 72.33 225.09 73.70
  Q 235.31 77.28 235.29 88.56
  Q 235.28 96.81 228.08 101.00
  Q 227.05 101.60 227.67 102.62
  L 237.03 118.27
  Q 237.34 118.79 236.73 118.79
  L 225.50 118.79
  Q 224.93 118.79 224.64 118.29
  L 216.54 104.14
  Q 216.19 103.52 215.47 103.53
  L 211.34 103.55
  Q 210.49 103.55 210.49 104.41
  Z
  M 210.48 83.03
  L 210.48 93.43
  A 0.32 0.32 0.0 0 0 210.80 93.75
  L 218.37 93.75
  A 5.41 5.27 0.0 0 0 223.78 88.48
  L 223.78 87.98
  A 5.41 5.27 -0.0 0 0 218.37 82.71
  L 210.80 82.71
  A 0.32 0.32 0.0 0 0 210.48 83.03
  Z"
/>
<path fill="#ffffff" d="
  M 320.26 102.45
  L 329.67 118.08
  Q 330.11 118.80 329.27 118.80
  L 318.10 118.79
  A 0.80 0.79 75.0 0 1 317.41 118.39
  L 309.38 104.17
  Q 309.02 103.53 308.28 103.53
  L 303.97 103.53
  Q 303.22 103.53 303.23 104.28
  L 303.25 118.26
  Q 303.25 118.78 302.74 118.78
  L 292.58 118.82
  A 0.37 0.37 0.0 0 1 292.21 118.45
  L 292.19 72.73
  A 0.40 0.40 0.0 0 1 292.58 72.33
  Q 301.99 72.05 311.58 72.44
  C 315.28 72.59 319.60 73.90 322.55 76.26
  Q 329.83 82.04 327.57 92.28
  C 326.60 96.66 324.23 98.86 320.62 101.03
  Q 319.73 101.56 320.26 102.45
  Z
  M 303.21 83.12
  L 303.25 93.38
  A 0.39 0.39 0.0 0 0 303.64 93.77
  L 310.95 93.75
  A 5.72 5.42 -0.2 0 0 316.65 88.31
  L 316.65 88.11
  A 5.72 5.42 -0.2 0 0 310.91 82.71
  L 303.60 82.73
  A 0.39 0.39 0.0 0 0 303.21 83.12
  Z"
/>
<path fill="#ffffff" d="
  M 348.80 90.48
  L 365.96 90.44
  A 0.31 0.31 0.0 0 1 366.27 90.75
  L 366.23 99.71
  A 0.31 0.31 0.0 0 1 365.92 100.02
  L 348.82 100.03
  A 0.31 0.31 0.0 0 0 348.51 100.34
  L 348.47 108.16
  A 0.31 0.31 0.0 0 0 348.78 108.47
  L 371.20 108.47
  A 0.31 0.31 0.0 0 1 371.51 108.78
  L 371.57 118.49
  A 0.31 0.31 0.0 0 1 371.26 118.80
  L 337.78 118.78
  A 0.31 0.31 0.0 0 1 337.47 118.47
  L 337.45 72.57
  A 0.31 0.31 0.0 0 1 337.76 72.26
  L 370.96 72.26
  A 0.31 0.31 0.0 0 1 371.27 72.57
  L 371.23 82.42
  A 0.31 0.31 0.0 0 1 370.92 82.73
  L 348.80 82.73
  A 0.31 0.31 0.0 0 0 348.49 83.04
  L 348.49 90.17
  A 0.31 0.31 0.0 0 0 348.80 90.48
  Z"
/>
<path fill="#ffffff" d="
  M 409.22 111.48
  L 391.26 111.48
  A 0.35 0.35 0.0 0 0 390.93 111.71
  L 388.34 118.56
  A 0.35 0.35 0.0 0 1 388.01 118.79
  L 376.84 118.79
  A 0.35 0.35 0.0 0 1 376.51 118.31
  L 394.84 72.49
  A 0.35 0.35 0.0 0 1 395.17 72.27
  L 405.19 72.26
  A 0.35 0.35 0.0 0 1 405.52 72.48
  L 423.88 118.33
  A 0.35 0.35 0.0 0 1 423.55 118.81
  L 412.36 118.79
  A 0.35 0.35 0.0 0 1 412.03 118.56
  L 409.55 111.71
  A 0.35 0.35 0.0 0 0 409.22 111.48
  Z
  M 394.68 101.29
  A 0.34 0.34 0.0 0 0 395.00 101.75
  L 405.36 101.78
  A 0.34 0.34 0.0 0 0 405.68 101.33
  L 400.55 87.03
  A 0.34 0.34 0.0 0 0 399.91 87.03
  L 394.68 101.29
  Z"
/>
<path fill="#ffffff" d="
  M 445.25 83.23
  L 445.25 118.35
  A 0.50 0.50 0.0 0 1 444.75 118.85
  L 434.68 118.84
  A 0.50 0.50 0.0 0 1 434.18 118.34
  L 434.22 83.24
  A 0.50 0.50 0.0 0 0 433.72 82.74
  L 420.67 82.74
  A 0.50 0.50 0.0 0 1 420.17 82.24
  L 420.19 72.76
  A 0.50 0.50 0.0 0 1 420.69 72.26
  L 459.00 72.26
  A 0.50 0.50 0.0 0 1 459.50 72.76
  L 459.49 82.23
  A 0.50 0.50 0.0 0 1 458.99 82.73
  L 445.75 82.73
  A 0.50 0.50 0.0 0 0 445.25 83.23
  Z"
/>
<rect fill="#ffffff" x="465.27" y="72.26" width="11.22" height="46.56" rx="0.47"/>
<path fill="#ffffff" d="
  M 569.52 98.72
  L 569.45 72.57
  A 0.30 0.30 0.0 0 1 569.75 72.27
  L 580.24 72.25
  A 0.30 0.30 0.0 0 1 580.54 72.55
  L 580.55 118.53
  A 0.30 0.30 0.0 0 1 580.25 118.83
  L 570.27 118.85
  A 0.30 0.30 0.0 0 1 570.03 118.73
  L 550.48 91.75
  A 0.30 0.30 0.0 0 0 549.93 91.93
  L 550.03 118.55
  A 0.30 0.30 0.0 0 1 549.73 118.85
  L 539.25 118.79
  A 0.30 0.30 0.0 0 1 538.95 118.49
  L 538.97 72.59
  A 0.30 0.30 0.0 0 1 539.27 72.29
  L 549.22 72.27
  A 0.30 0.30 0.0 0 1 549.46 72.39
  L 568.98 98.90
  A 0.30 0.30 0.0 0 0 569.52 98.72
  Z"
/>
</svg>
