<?xml version="1.0" encoding="UTF-8" standalone="no"?>
<!DOCTYPE svg PUBLIC "-//W3C//DTD SVG 1.1//EN" "http://www.w3.org/Graphics/SVG/1.1/DTD/svg11.dtd">
<svg xmlns="http://www.w3.org/2000/svg" version="1.1" viewBox="0.00 0.00 895.00 230.00">
<g stroke-width="2.00" fill="none" stroke-linecap="butt">
<path stroke="#f7ad92" vector-effect="non-scaling-stroke" d="
  M 125.72 35.39
  L 76.73 65.78"
/>
<path stroke="#f7ad92" vector-effect="non-scaling-stroke" d="
  M 66.74 131.26
  Q 66.51 131.32 66.35 131.30
  A 0.47 0.45 33.7 0 0 66.07 131.35
  Q 42.80 145.80 19.54 160.27
  Q 18.83 160.71 18.74 161.67"
/>
<path stroke="#8ac3e5" vector-effect="non-scaling-stroke" d="
  M 184.70 68.95
  Q 184.24 68.77 183.64 69.15
  Q 171.22 77.01 136.47 98.46
  Q 136.22 98.61 135.55 98.48"
/>
<path stroke="#8ac3e5" vector-effect="non-scaling-stroke" d="
  M 125.74 164.46
  L 76.75 194.53"
/>
</g>
<path fill="#ffffff" d="
  M 125.72 35.39
  L 76.73 65.78
  L 76.70 13.28
  A 0.52 0.52 0.0 0 1 77.44 12.81
  L 125.72 35.39
  Z"
/>
<path fill="#ee5b25" d="
  M 125.72 35.39
  L 125.81 93.92
  A 0.61 0.60 -17.1 0 1 125.54 94.42
  L 66.74 131.26
  Q 66.51 131.32 66.35 131.30
  A 0.47 0.45 33.7 0 0 66.07 131.35
  Q 42.80 145.80 19.54 160.27
  Q 18.83 160.71 18.74 161.67
  Q 18.21 161.68 17.94 161.52
  Q 17.68 161.38 17.68 160.89
  Q 17.78 131.91 17.68 103.00
  Q 17.68 102.50 18.10 102.24
  L 76.73 65.78
  L 125.72 35.39
  Z"
/>
<path fill="#ffffff" d="
  M 184.70 68.95
  Q 184.24 68.77 183.64 69.15
  Q 171.22 77.01 136.47 98.46
  Q 136.22 98.61 135.55 98.48
  L 135.70 46.08
  Q 135.70 45.58 136.15 45.79
  Q 160.78 57.33 183.15 67.89
  Q 183.58 68.09 184.07 68.06
  Q 184.57 68.03 184.64 68.52
  L 184.70 68.95
  Z"
/>
<path fill="#1586ca" d="
  M 184.70 68.95
  L 184.78 126.94
  A 0.91 0.88 -16.5 0 1 184.34 127.72
  Q 176.25 132.58 168.31 137.55
  Q 147.28 150.70 126.70 163.44
  Q 125.89 163.94 125.74 164.46
  L 76.75 194.53
  L 76.75 136.13
  A 1.09 1.09 0.0 0 1 77.27 135.20
  Q 105.79 117.57 134.58 99.57
  Q 135.22 99.16 135.55 98.48
  Q 136.22 98.61 136.47 98.46
  Q 171.22 77.01 183.64 69.15
  Q 184.24 68.77 184.70 68.95
  Z"
/>
<path fill="#ffffff" d="
  M 346.28 124.02
  C 351.91 135.26 367.90 135.54 375.18 126.08
  A 1.68 1.67 -64.7 0 1 376.90 125.46
  Q 384.02 127.09 391.21 129.45
  A 0.50 0.50 0.0 0 1 391.49 130.16
  Q 383.79 144.59 368.10 147.71
  Q 364.85 148.36 358.93 148.14
  Q 353.98 147.96 350.24 146.57
  Q 337.33 141.78 331.29 129.67
  Q 326.74 120.55 328.05 110.40
  C 329.30 100.76 334.59 91.99 342.92 86.70
  Q 353.53 79.97 366.77 81.96
  Q 378.13 83.67 386.29 92.41
  Q 388.52 94.80 389.89 97.84
  A 0.57 0.56 68.4 0 1 389.56 98.61
  Q 383.77 100.51 377.90 102.13
  Q 376.21 102.59 374.57 102.35
  Q 374.06 102.27 373.70 101.89
  C 368.29 95.99 358.02 95.24 351.56 99.59
  Q 346.42 103.05 344.92 108.81
  Q 342.78 117.05 346.28 124.02
  Z"
/>
<path fill="#ffffff" d="
  M 733.48 114.97
  A 33.62 33.62 0.0 0 1 699.86 148.59
  A 33.62 33.62 0.0 0 1 666.24 114.97
  A 33.62 33.62 0.0 0 1 699.86 81.35
  A 33.62 33.62 0.0 0 1 733.48 114.97
  Z
  M 699.7732 133.4597
  A 18.49 17.62 90.3 0 0 717.4898 115.0623
  A 18.49 17.62 90.3 0 0 699.9668 96.4803
  A 18.49 17.62 90.3 0 0 682.2502 114.8777
  A 18.49 17.62 90.3 0 0 699.7732 133.4597
  Z"
/>
<path fill="#ffffff" d="
  M 850.10 111.32
  Q 855.58 113.90 859.57 118.84
  C 864.24 124.64 863.37 133.54 859.23 139.23
  C 853.60 146.96 843.06 149.21 833.59 148.27
  C 822.67 147.17 814.64 140.10 810.58 129.72
  Q 810.32 129.07 811.00 128.88
  L 824.42 125.28
  Q 825.06 125.11 825.33 125.71
  Q 827.93 131.48 832.90 133.65
  Q 838.99 136.32 843.90 133.27
  C 848.91 130.16 845.53 124.96 841.29 123.35
  Q 834.22 120.67 827.41 118.28
  Q 823.07 116.77 819.32 113.61
  C 807.26 103.47 813.45 87.85 826.95 83.20
  Q 838.87 79.09 849.82 84.48
  C 855.38 87.22 859.89 92.34 861.99 98.28
  A 0.73 0.73 0.0 0 1 861.50 99.23
  L 847.99 102.96
  Q 847.39 103.13 847.15 102.55
  Q 843.60 93.70 833.52 95.15
  Q 831.00 95.52 829.56 97.67
  C 826.53 102.20 833.99 105.18 836.84 106.12
  Q 844.30 108.58 850.10 111.32
  Z"
/>
<path fill="#ffffff" d="
  M 226.30 132.80
  L 258.25 132.75
  A 0.72 0.71 87.8 0 1 258.96 133.42
  Q 259.33 139.36 258.77 145.32
  A 1.84 1.84 0.0 0 1 256.95 146.99
  L 206.06 147.34
  A 1.78 1.78 0.0 0 1 204.27 145.56
  L 204.21 133.75
  A 1.41 1.36 -29.3 0 1 204.44 132.99
  C 205.17 131.82 205.95 130.53 206.92 129.54
  Q 218.91 117.32 232.76 103.02
  C 234.53 101.20 235.90 99.12 237.94 97.60
  Q 238.56 97.13 237.78 97.14
  L 206.31 97.28
  A 1.18 1.17 -1.5 0 1 205.13 96.17
  Q 204.80 89.77 205.13 83.48
  A 0.82 0.82 0.0 0 1 205.95 82.70
  L 258.62 82.72
  A 0.40 0.40 0.0 0 1 259.02 83.12
  L 259.17 95.35
  A 4.37 4.35 -23.8 0 1 257.99 98.38
  L 226.18 132.50
  Q 225.90 132.80 226.30 132.80
  Z"
/>
<path fill="#ffffff" d="
  M 310.97 123.16
  Q 310.38 123.50 310.74 124.07
  Q 317.17 134.38 322.81 144.35
  Q 323.32 145.26 323.59 146.26
  A 0.71 0.71 0.0 0 1 322.89 147.16
  Q 316.22 146.93 309.68 147.03
  Q 308.70 147.05 307.84 146.55
  Q 306.66 145.86 306.32 145.16
  Q 302.29 136.96 296.46 128.43
  Q 295.74 127.38 294.88 126.52
  Q 294.47 126.12 293.89 126.13
  L 287.60 126.29
  Q 287.25 126.29 287.25 126.65
  L 287.24 145.26
  Q 287.24 147.00 285.49 146.99
  L 275.35 146.92
  Q 271.81 146.90 271.80 143.35
  L 271.71 83.29
  Q 271.70 82.76 272.24 82.75
  Q 293.59 82.52 300.48 83.06
  C 310.33 83.84 319.43 90.07 321.40 100.08
  Q 322.42 105.26 320.98 110.70
  Q 318.89 118.64 310.97 123.16
  Z
  M 287.25 97.64
  L 287.25 111.76
  A 0.51 0.51 0.0 0 0 287.76 112.27
  L 297.98 112.27
  A 7.71 7.52 0.0 0 0 305.69 104.75
  L 305.69 104.65
  A 7.71 7.52 -0.0 0 0 297.98 97.13
  L 287.76 97.13
  A 0.51 0.51 0.0 0 0 287.25 97.64
  Z"
/>
<path fill="#ffffff" d="
  M 416.00 127.00
  L 416.00 146.66
  Q 416.00 147.31 415.34 147.31
  L 400.77 147.45
  Q 400.17 147.46 400.20 146.86
  C 400.48 139.83 400.63 132.95 400.33 125.66
  C 399.73 111.11 400.39 97.69 400.69 83.41
  A 0.73 0.72 -0.0 0 1 401.41 82.70
  Q 413.32 82.58 425.47 82.68
  Q 431.15 82.72 435.41 84.61
  Q 435.73 84.75 436.08 84.75
  Q 436.28 84.74 436.46 84.68
  Q 436.85 84.54 437.22 84.72
  Q 453.47 92.67 449.82 110.41
  Q 448.82 115.26 444.81 119.33
  C 443.23 120.94 441.38 121.87 439.60 123.19
  Q 439.09 123.57 439.42 124.12
  L 452.92 146.71
  A 0.45 0.45 0.0 0 1 452.53 147.39
  L 436.79 147.31
  A 1.37 1.37 0.0 0 1 435.62 146.62
  L 424.31 126.75
  Q 424.02 126.25 423.44 126.25
  L 416.75 126.25
  Q 416.00 126.25 416.00 127.00
  Z
  M 415.99 97.55
  L 415.99 112.05
  A 0.45 0.45 0.0 0 0 416.44 112.50
  L 426.58 112.50
  A 7.91 7.47 0.0 0 0 434.49 105.03
  L 434.49 104.57
  A 7.91 7.47 -0.0 0 0 426.58 97.10
  L 416.44 97.10
  A 0.45 0.45 0.0 0 0 415.99 97.55
  Z"
/>
<path fill="#ffffff" d="
  M 478.92 98.01
  L 478.88 107.32
  Q 478.88 107.76 479.32 107.76
  L 502.79 107.78
  Q 503.43 107.78 503.43 108.41
  L 503.47 120.51
  A 0.74 0.74 0.0 0 1 502.74 121.25
  L 479.33 121.42
  Q 479.02 121.43 479.02 121.73
  L 478.88 132.27
  A 0.64 0.63 0.4 0 0 479.52 132.91
  L 510.50 132.87
  A 0.38 0.37 90.0 0 1 510.87 133.25
  L 510.86 146.73
  A 0.59 0.59 0.0 0 1 510.27 147.32
  L 464.02 147.39
  Q 463.41 147.39 463.41 146.77
  L 463.41 83.44
  Q 463.41 82.67 464.19 82.67
  Q 484.77 82.80 506.55 82.61
  Q 508.16 82.59 509.75 82.82
  A 0.78 0.77 -85.3 0 1 510.41 83.60
  L 510.31 96.45
  Q 510.31 96.96 509.80 96.96
  L 479.74 97.18
  Q 478.92 97.19 478.92 98.01
  Z"
/>
<path fill="#ffffff" d="
  M 533.72 147.37
  L 518.01 147.33
  A 0.38 0.38 0.0 0 1 517.66 146.81
  L 543.21 82.98
  A 0.38 0.38 0.0 0 1 543.57 82.74
  L 557.70 82.70
  A 0.38 0.38 0.0 0 1 558.06 82.94
  L 583.60 146.80
  A 0.38 0.38 0.0 0 1 583.25 147.32
  L 567.44 147.40
  A 0.38 0.38 0.0 0 1 567.08 147.15
  L 563.46 137.25
  A 0.38 0.38 0.0 0 0 563.10 137.00
  L 538.18 137.05
  A 0.38 0.38 0.0 0 0 537.83 137.29
  L 534.07 147.12
  A 0.38 0.38 0.0 0 1 533.72 147.37
  Z
  M 543.34 123.69
  L 557.23 123.67
  A 0.88 0.88 0.0 0 0 558.06 122.49
  L 550.93 102.78
  Q 550.48 101.54 550.12 102.81
  C 548.10 109.76 545.11 116.34 543.02 123.25
  Q 542.88 123.69 543.34 123.69
  Z"
/>
<path fill="#ffffff" d="
  M 613.26 97.63
  L 613.22 146.89
  A 0.47 0.47 0.0 0 1 612.75 147.36
  L 598.23 147.33
  A 0.47 0.47 0.0 0 1 597.76 146.86
  L 597.79 97.55
  A 0.47 0.47 0.0 0 0 597.32 97.08
  L 578.72 97.13
  A 0.47 0.47 0.0 0 1 578.25 96.66
  L 578.24 83.17
  A 0.47 0.47 0.0 0 1 578.71 82.70
  L 632.41 82.73
  A 0.47 0.47 0.0 0 1 632.88 83.20
  L 632.91 96.51
  A 0.47 0.47 0.0 0 1 632.44 96.98
  L 613.73 97.16
  A 0.47 0.47 0.0 0 0 613.26 97.63
  Z"
/>
<rect fill="#ffffff" x="641.00" y="82.70" width="15.68" height="64.66" rx="0.44"/>
<path fill="#ffffff" d="
  M 758.72 109.94
  L 758.79 147.03
  A 0.31 0.31 0.0 0 1 758.48 147.34
  L 743.43 147.39
  A 0.31 0.31 0.0 0 1 743.12 147.08
  L 743.12 83.04
  A 0.31 0.31 0.0 0 1 743.43 82.73
  L 757.68 82.60
  A 0.31 0.31 0.0 0 1 757.93 82.73
  L 785.22 119.86
  A 0.31 0.31 0.0 0 0 785.78 119.67
  L 785.73 83.04
  A 0.31 0.31 0.0 0 1 786.04 82.73
  L 800.92 82.71
  A 0.31 0.31 0.0 0 1 801.23 83.02
  L 801.19 147.06
  A 0.31 0.31 0.0 0 1 800.88 147.37
  L 786.79 147.34
  A 0.31 0.31 0.0 0 1 786.54 147.21
  L 759.28 109.75
  A 0.31 0.31 0.0 0 0 758.72 109.94
  Z"
/>
<path fill="#ffffff" d="
  M 66.74 131.26
  L 66.73 183.38
  A 0.49 0.49 0.0 0 1 66.04 183.82
  L 18.74 161.67
  Q 18.83 160.71 19.54 160.27
  Q 42.80 145.80 66.07 131.35
  A 0.47 0.45 33.7 0 1 66.35 131.30
  Q 66.51 131.32 66.74 131.26
  Z"
/>
<path fill="#ffffff" d="
  M 125.74 164.46
  L 125.73 216.62
  Q 125.73 217.58 124.86 217.17
  L 76.75 194.53
  L 125.74 164.46
  Z"
/>
</svg>
